<svg xmlns="http://www.w3.org/2000/svg" viewBox="0 0 40 32">
  <path fill="#2557D6" d="M0 0h40v32H0z"/>
  <path d="M22 16.9v-1.2h-3.6v-1.7h3.5v-1.2h-3.5v-1.7h3.6V9.9h-5.3v7zm-6.4 0v-4.6L13.1 17h-1.2l-2.5-4.7v4.6H6.9V9.9h2.8l2.2 4.2 2.2-4.2h2.8v7h-2.3zm14.1 0l-.6-1.4h-2.9l-.6 1.4h-2.4l3.1-7h2.7l3.1 7h-2.4zm-1.4-3.3c-.3-.6-.5-1.1-.5-1.1s-.2.5-.5 1.1l-.4.8h1.8l-.4-.8zm3.8 3.3v-7h2.3v5.5h3.2v1.5h-5.5z" fill="#fff"/>
  <path d="M33.1 22.1v-1.5h-3.6v-1.7h3.5v-1.5h-3.5v-1.7h3.6v-1.5h-5.9v7.9h5.9zm-8.7 0v-5.4l-2.7 5.4h-1.3l-2.7-5.4v5.4h-3.3v-7.9h4.9l1.8 3.8 1.8-3.8h4.9v7.9h-3.4zm-12.1 0v-1.5h-3.6v-1.7h3.5v-1.5h-3.5v-1.7h3.6v-1.5H6.9v7.9h5.4z" fill="#fff"/>
</svg>

