<svg xmlns="http://www.w3.org/2000/svg" viewBox="0 0 1000 324.68">
  <path fill="#00579f" d="M433.32 318.68h-82.3l51.5-301.97h82.3l-51.5 301.97z"/>
  <path d="M727.3 23.7c-16.3-6.1-41.9-12.7-73.8-12.7-81.3 0-138.6 41-138.9 99.6-.5 43.4 40.9 67.5 72.1 82 32 14.8 42.7 24.3 42.6 37.5-.3 20.3-25.6 29.5-49.2 29.5-32.8 0-50.3-4.6-77.2-15.8l-10.6-4.8-11.5 67.5c19.2 8.4 54.6 15.7 91.4 16.1 86.2 0 142.2-40.5 142.9-103.1.4-34.3-21.6-60.4-69-81.9-28.7-13.9-46.3-23.2-46.1-37.3.1-12.5 14.8-25.9 46.8-25.9 26.7-.5 46 5.4 61 11.4l7.3 3.5 11.2-65.6" fill="#00579f"/>
  <path d="M834.7 23.7c-16.3-6.1-41.9-12.7-73.8-12.7-81.3 0-138.6 41-138.9 99.6-.5 43.4 40.9 67.5 72.1 82 32 14.8 42.7 24.3 42.6 37.5-.3 20.3-25.6 29.5-49.2 29.5-32.8 0-50.3-4.6-77.2-15.8l-10.6-4.8-11.5 67.5c19.2 8.4 54.6 15.7 91.4 16.1 86.2 0 142.2-40.5 142.9-103.1.4-34.3-21.6-60.4-69-81.9-28.7-13.9-46.3-23.2-46.1-37.3.1-12.5 14.8-25.9 46.8-25.9 26.7-.5 46 5.4 61 11.4l7.3 3.5 11.2-65.6" fill="#00579f"/>
  <path d="M930.1 208.7l-28.7-138.1c-4.8-18.5-18.8-24.2-36.2-24.8h-113.8l-.8 4.9c28.8 7 61.2 18.3 80.9 30.3 12 7.1 15.5 13.2 19.4 29.9l36.2 98.8h-82.3l51.5-301.97h82.3l-8.5 301.97z" fill="#00579f"/>
  <path d="M284.5 16.7l-77.1 197.7-8.2-40.8s-19.5-94.6-90.3-94.6c0 0-39.5 88.3 99.6 137.7l-51.5 102h97.7l128.3-302h-98.5z" fill="#faa61a"/>
</svg>

